HIERARCHY
ROOT Hips
{
	OFFSET 62.890800 8.863803 43.568401
	CHANNELS 6 Xposition Yposition Zposition Zrotation Xrotation Yrotation
	JOINT Chest
	{
		OFFSET -0.160400 1.630001 7.806301
		CHANNELS 6 Xposition Yposition Zposition Zrotation Xrotation Yrotation
		JOINT Chest2
		{
			OFFSET 0.000000 0.000000 3.197998
			CHANNELS 6 Xposition Yposition Zposition Zrotation Xrotation Yrotation
			JOINT Neck
			{
				OFFSET 0.000000 0.000001 7.440701
				CHANNELS 6 Xposition Yposition Zposition Zrotation Xrotation Yrotation
				JOINT Head
				{
					OFFSET 0.000000 0.000000 2.173901
					CHANNELS 6 Xposition Yposition Zposition Zrotation Xrotation Yrotation
					End Site
					{
						OFFSET 0.000000 0.000001 10.420303
					}
				}
			}
			JOINT LeftCollar
			{
				OFFSET 2.426399 -1.880099 4.759399
				CHANNELS 6 Xposition Yposition Zposition Zrotation Xrotation Yrotation
				JOINT LeftShoulder
				{
					OFFSET 4.420197 0.000000 0.000000
					CHANNELS 6 Xposition Yposition Zposition Zrotation Xrotation Yrotation
					JOINT LeftElbow
					{
						OFFSET 0.000000 -0.000001 -10.347099
						CHANNELS 6 Xposition Yposition Zposition Zrotation Xrotation Yrotation
						JOINT LeftWrist
						{
							OFFSET 0.000000 -0.000001 -12.496300
							CHANNELS 6 Xposition Yposition Zposition Zrotation Xrotation Yrotation
							End Site
							{
								OFFSET 0.000000 0.000000 -2.173901
							}
						}
					}
				}
			}
			JOINT RightCollar
			{
				OFFSET -2.781502 -1.903799 5.072601
				CHANNELS 6 Xposition Yposition Zposition Zrotation Xrotation Yrotation
				JOINT RightShoulder
				{
					OFFSET -4.012100 0.000000 0.000000
					CHANNELS 6 Xposition Yposition Zposition Zrotation Xrotation Yrotation
					JOINT RightElbow
					{
						OFFSET 0.000000 -0.000001 -10.346600
						CHANNELS 6 Xposition Yposition Zposition Zrotation Xrotation Yrotation
						JOINT RightWrist
						{
							OFFSET 0.000000 -0.000001 -12.562599
							CHANNELS 6 Xposition Yposition Zposition Zrotation Xrotation Yrotation
							End Site
							{
								OFFSET 0.000000 0.000000 -2.173901
							}
						}
					}
				}
			}
		}
	}
	JOINT LeftHip
	{
		OFFSET 2.047997 -0.047200 -2.693199
		CHANNELS 6 Xposition Yposition Zposition Zrotation Xrotation Yrotation
		JOINT LeftKnee
		{
			OFFSET 0.000000 -0.000001 -18.824400
			CHANNELS 6 Xposition Yposition Zposition Zrotation Xrotation Yrotation
			JOINT LeftAnkle
			{
				OFFSET 0.000000 -0.000002 -19.078199
				CHANNELS 6 Xposition Yposition Zposition Zrotation Xrotation Yrotation
				End Site
				{
					OFFSET 0.000000 -9.342100 0.000001
				}
			}
		}
	}
	JOINT RightHip
	{
		OFFSET -2.129898 -0.022300 -2.538300
		CHANNELS 6 Xposition Yposition Zposition Zrotation Xrotation Yrotation
		JOINT RightKnee
		{
			OFFSET 0.000000 -0.000001 -18.644600
			CHANNELS 6 Xposition Yposition Zposition Zrotation Xrotation Yrotation
			JOINT RightAnkle
			{
				OFFSET 0.000000 -0.000002 -18.801399
				CHANNELS 6 Xposition Yposition Zposition Zrotation Xrotation Yrotation
				End Site
				{
					OFFSET 0.000000 -8.914600 0.000001
				}
			}
		}
	}
}
MOTION
Frames: 4
Frame Time: 0.041667
14.137985 -37.792603 34.297741 -359.848298 13.860897 -2.317480 -0.160405 1.630003 7.806296 0.933600 7.054567 -5.199239 0.000008 0.000001 3.197994 -2.397121 -4.626024 -0.105754 -0.000003 0.000004 7.440701 -44.115376 -6.703204 9.802562 -0.000004 0.000002 2.173916 -3.853664 0.232300 -6.657163 2.426403 -1.880103 4.759398 -7.842609 4.998620 0.818816 4.420199 0.000005 0.000004 -81.908981 -22.490001 -51.840388 0.000001 0.000006 -10.347093 355.940965 -44.189268 8.651198 0.000007 -0.000000 -12.496292 95.732655 12.505854 -0.478147 -2.781501 -1.903803 5.072607 14.851816 9.637102 -5.396923 -4.012101 0.000007 0.000010 47.207351 -6.100842 41.899119 -0.000006 -0.000002 -10.346598 -52.627557 -17.372088 -44.386937 -0.000000 -0.000008 -12.562597 850.355601 -172.139168 194.056753 2.047997 -0.047195 -2.693199 129.902412 -20.743570 70.363680 -0.000005 -0.000000 -18.824406 5.255522 157.546619 -106.524860 0.000005 -0.000003 -19.078199 31.513304 -3.229609 28.508889 -2.129900 -0.022293 -2.538300 -506.543385 -15.694977 -70.395638 0.000004 -0.000004 -18.644600 368.698037 166.081350 119.541001 -0.000009 0.000001 -18.801399 -48.254286 3.161776 -59.528172
13.646393 -37.523304 33.473846 -360.805644 14.770554 -2.589412 -0.160400 1.630003 7.806304 2.127225 6.788577 -6.164888 -0.000000 0.000001 3.198005 -3.517407 -4.998337 -0.236083 -0.000001 0.000001 7.440696 -44.577499 -7.123289 9.083897 -0.000005 -0.000001 2.173908 -3.639649 0.168490 -6.483079 2.426399 -1.880105 4.759396 -8.103295 5.295573 0.959204 4.420196 -0.000001 0.000009 -84.201630 -22.843744 -54.277167 -0.000014 -0.000003 -10.347097 357.645753 -43.990813 9.946811 0.000000 0.000002 -12.496297 97.098946 12.882632 -0.598754 -2.781504 -1.903807 5.072602 15.099950 9.702934 -5.953799 -4.012109 -0.000005 0.000000 48.552482 -6.833382 42.535102 -0.000007 0.000008 -10.346587 -53.442644 -16.961552 -45.156942 0.000001 -0.000003 -12.562598 846.924223 -172.730580 195.432271 2.047997 -0.047194 -2.693200 131.910842 -19.673822 72.509193 -0.000005 -0.000006 -18.824400 1.952857 160.928423 -105.517673 0.000008 -0.000002 -19.078197 34.810230 -4.473750 32.798678 -2.129897 -0.022294 -2.538298 -506.309028 -14.888429 -73.761754 0.000005 -0.000000 -18.644598 370.756219 167.924176 116.780348 0.000000 -0.000002 -18.801405 -50.512995 1.619009 -61.259973
13.209293 -37.274803 32.720043 -361.608738 15.285642 -2.899830 -0.160399 1.630000 7.806303 3.144028 6.870843 -7.026950 0.000004 0.000004 3.198000 -4.613913 -5.338582 -0.054122 -0.000005 -0.000002 7.440709 -45.147766 -7.114523 8.114686 -0.000003 0.000002 2.173903 -3.476943 0.163301 -6.394269 2.426401 -1.880106 4.759403 -8.271549 5.613438 0.808672 4.420200 -0.000001 0.000004 -86.112778 -22.961552 -56.505503 0.000004 -0.000003 -10.347095 359.535858 -43.990120 11.232732 0.000000 0.000004 -12.496302 99.173158 13.212797 -0.545621 -2.781508 -1.903805 5.072604 15.401296 9.684773 -6.688581 -4.012102 0.000010 0.000009 49.779727 -7.521645 43.006440 -0.000010 0.000002 -10.346599 -53.893802 -16.788564 -45.855158 0.000002 -0.000003 -12.562605 844.279028 -173.285109 196.799921 2.047993 -0.047194 -2.693198 133.499380 -18.726560 74.158355 0.000001 0.000001 -18.824404 -0.841374 163.766148 -104.716909 0.000007 -0.000004 -19.078203 37.543433 -5.535489 36.288658 -2.129897 -0.022293 -2.538301 -506.004128 -14.623070 -76.721138 -0.000007 0.000003 -18.644596 371.708402 168.756680 114.150903 -0.000008 -0.000004 -18.801397 -51.429829 0.488725 -61.986726
12.824001 -37.049206 32.044037 -362.291101 15.845783 -3.255890 -0.160400 1.630001 7.806296 4.027848 6.857554 -7.748039 0.000001 -0.000001 3.198000 -5.597904 -5.650339 -0.473211 -0.000003 0.000006 7.440692 -45.742818 -7.356829 7.598237 -0.000002 -0.000000 2.173908 -3.371940 0.194827 -6.380103 2.426404 -1.880101 4.759393 -8.447346 5.823253 1.159570 4.420197 0.000003 -0.000007 -87.675211 -23.045118 -58.444255 0.000003 0.000005 -10.347093 361.527595 -44.092723 12.562498 -0.000002 0.000002 -12.496303 101.030253 13.523491 -0.539440 -2.781503 -1.903798 5.072602 15.554904 9.841924 -6.711480 -4.012095 0.000008 0.000013 50.862066 -8.146334 43.340214 -0.000005 0.000000 -10.346603 -54.036430 -16.832829 -46.469954 0.000002 -0.000004 -12.562597 842.384606 -173.666589 197.672518 2.047998 -0.047198 -2.693199 134.762214 -17.802820 75.613637 -0.000000 0.000002 -18.824404 -3.002204 165.924884 -104.057713 0.000001 -0.000006 -19.078196 39.668591 -6.392949 39.007733 -2.129898 -0.022298 -2.538305 -505.779770 -14.315776 -79.551903 0.000004 -0.000000 -18.644592 372.342954 169.257456 111.684405 -0.000003 -0.000002 -18.801395 -51.836368 -0.430663 -62.438932
